<svg width="45" height="45" viewBox="0 0 45 45" fill="none" xmlns="http://www.w3.org/2000/svg">
<path d="M22.4886 0C10.0671 0 0 10.0672 0 22.4886C0 34.91 10.0671 44.9771 22.4886 44.9771C34.91 44.9771 44.9772 34.91 44.9772 22.4886C44.9772 10.0672 34.91 0 22.4886 0Z" fill="#606060"/>
<path fill-rule="evenodd" clip-rule="evenodd" d="M20.8072 24.8875C20.9187 24.7761 21.007 24.6438 21.0673 24.4983C21.1276 24.3528 21.1586 24.1968 21.1586 24.0392C21.1586 23.8817 21.1276 23.7257 21.0673 23.5802C21.007 23.4346 20.9187 23.3024 20.8072 23.191C20.4943 22.878 20.246 22.5065 20.0766 22.0976C19.9072 21.6887 19.8201 21.2505 19.8201 20.8079C19.8201 20.3653 19.9072 19.927 20.0766 19.5182C20.246 19.1093 20.4943 18.7377 20.8072 18.4248L24.8471 14.3863C25.16 14.0734 25.5316 13.8251 25.9405 13.6558C26.3494 13.4864 26.7877 13.3992 27.2303 13.3992C27.6729 13.3992 28.1112 13.4864 28.5201 13.6558C28.929 13.8251 29.3005 14.0734 29.6135 14.3863C29.9265 14.6993 30.1747 15.0708 30.3441 15.4797C30.5135 15.8886 30.6007 16.3268 30.6007 16.7694C30.6007 17.212 30.5135 17.6502 30.3441 18.0591C30.1747 18.468 29.9265 18.8396 29.6135 19.1525L28.3648 20.4C28.2534 20.5114 28.165 20.6437 28.1047 20.7892C28.0444 20.9348 28.0134 21.0908 28.0134 21.2483C28.0134 21.4058 28.0444 21.5618 28.1047 21.7074C28.165 21.8529 28.2534 21.9851 28.3648 22.0965C28.5898 22.3215 28.8949 22.4479 29.2131 22.4479C29.3706 22.4479 29.5266 22.4169 29.6722 22.3566C29.8177 22.2963 29.95 22.2079 30.0614 22.0965L31.3101 20.849C32.3921 19.767 33 18.2996 33 16.7694C33 15.2393 32.3921 13.7718 31.3101 12.6898C30.2281 11.6078 28.7605 11 27.2303 11C25.7001 11 24.2325 11.6078 23.1505 12.6898L19.1107 16.7283C18.5749 17.264 18.1499 17.9 17.8599 18.6C17.5699 19.3 17.4207 20.0502 17.4207 20.8079C17.4207 21.5655 17.5699 22.3158 17.8599 23.0158C18.1499 23.7157 18.5749 24.3517 19.1107 24.8875C19.5791 25.3559 20.3388 25.3559 20.8072 24.8875ZM23.1493 19.1525C23.0379 19.2639 22.9496 19.3961 22.8893 19.5417C22.829 19.6872 22.7979 19.8432 22.7979 20.0008C22.7979 20.1583 22.829 20.3143 22.8893 20.4598C22.9496 20.6054 23.0379 20.7376 23.1493 20.849C23.4623 21.162 23.7106 21.5335 23.88 21.9424C24.0493 22.3513 24.1365 22.7895 24.1365 23.2321C24.1365 23.6747 24.0493 24.1129 23.88 24.5218C23.7106 24.9307 23.4623 25.3022 23.1493 25.6152L19.1506 29.6137C18.8393 29.934 18.4675 30.1892 18.0566 30.3645C17.6458 30.5398 17.2042 30.6317 16.7576 30.6349C16.3109 30.638 15.8681 30.5524 15.4548 30.3829C15.0416 30.2134 14.6661 29.9634 14.3503 29.6476C14.0345 29.3317 13.7846 28.9562 13.6152 28.5429C13.4458 28.1297 13.3603 27.6868 13.3635 27.2402C13.3668 26.7936 13.4588 26.352 13.6342 25.9413C13.8097 25.5305 14.065 25.1587 14.3854 24.8475L15.5564 23.6765C15.7814 23.4515 15.9078 23.1464 15.9078 22.8283C15.9078 22.5101 15.7814 22.205 15.5564 21.98C15.3314 21.755 15.0263 21.6287 14.7081 21.6287C14.3899 21.6287 14.0848 21.755 13.8598 21.98L12.6899 23.151C11.6079 24.233 11 25.7004 11 27.2306C11 28.7607 11.6079 30.2282 12.6899 31.3102C13.7719 32.3922 15.2395 33 16.7697 33C18.2999 33 19.7675 32.3922 20.8495 31.3102L24.8482 27.3117C25.384 26.776 25.809 26.14 26.099 25.44C26.3889 24.74 26.5382 23.9898 26.5382 23.2321C26.5382 22.4744 26.3889 21.7242 26.099 21.0242C25.809 20.3242 25.384 19.6882 24.8482 19.1525C24.7368 19.0411 24.6046 18.9527 24.459 18.8924C24.3135 18.8322 24.1575 18.8011 23.9999 18.8011C23.8424 18.8011 23.6864 18.8322 23.5408 18.8924C23.3953 18.9527 23.263 19.0411 23.1516 19.1525H23.1493Z" fill="#FEFEFE"/>
</svg>
