<svg width="45" height="45" viewBox="0 0 45 45" fill="none" xmlns="http://www.w3.org/2000/svg">
<path d="M22.4886 0C10.0671 0 0 10.0672 0 22.4886C0 34.91 10.0671 44.9771 22.4886 44.9771C34.91 44.9771 44.9772 34.91 44.9772 22.4886C44.9772 10.0672 34.91 0 22.4886 0Z" fill="#FEFEFE"/>
<path d="M22.4886 0C10.0671 0 0 10.0671 0 22.4886C0 34.91 10.0671 44.9772 22.4886 44.9772C34.91 44.9772 44.9772 34.91 44.9772 22.4886C44.9772 10.0671 34.91 0 22.4886 0ZM27.4519 18.6761L27.1972 22.0405H23.7447V33.7241H19.3876V22.0405H17.0597V18.6761H19.3876V16.4184C19.3876 15.4258 19.414 13.8885 20.1343 12.9309C20.8986 11.9207 21.9439 11.2355 23.7447 11.2355C26.6789 11.2355 27.9087 11.6572 27.9087 11.6572L27.3289 15.1008C27.3289 15.1008 26.3626 14.8196 25.4578 14.8196C24.5529 14.8196 23.7447 15.1447 23.7447 16.0494V18.6761H27.4519Z" fill="#3B5998"/>
</svg>
