<svg width="45" height="46" viewBox="0 0 45 46" fill="none" xmlns="http://www.w3.org/2000/svg">
<path d="M22.4886 0.21875C10.0671 0.21875 0 10.2859 0 22.7074C0 35.1287 10.0671 45.1959 22.4886 45.1959C34.91 45.1959 44.9772 35.1287 44.9772 22.7074C44.9772 10.2859 34.91 0.21875 22.4886 0.21875Z" fill="#FEFEFE"/>
<path d="M22.4886 0.21875C10.0671 0.21875 0 10.2859 0 22.7073C0 35.1288 10.0671 45.1959 22.4886 45.1959C34.91 45.1959 44.9772 35.1288 44.9772 22.7073C44.9772 10.2859 34.91 0.21875 22.4886 0.21875ZM27.4519 18.8948L27.1972 22.2593H23.7447V33.9428H19.3876V22.2593H17.0597V18.8948H19.3876V16.6371C19.3876 15.6445 19.414 14.1072 20.1343 13.1497C20.8986 12.1394 21.9439 11.4543 23.7447 11.4543C26.6789 11.4543 27.9087 11.876 27.9087 11.876L27.3289 15.3195C27.3289 15.3195 26.3626 15.0384 25.4578 15.0384C24.5529 15.0384 23.7447 15.3634 23.7447 16.2682V18.8948H27.4519Z" fill="#3B5998"/>
</svg>
