<svg width="47" height="46" viewBox="0 0 47 46" fill="none" xmlns="http://www.w3.org/2000/svg">
<path d="M23.5511 0.21875C11.1296 0.21875 1.0625 10.2859 1.0625 22.7073C1.0625 35.1288 11.1296 45.1959 23.5511 45.1959C35.9725 45.1959 46.0397 35.1288 46.0397 22.7073C46.0397 10.2859 35.9725 0.21875 23.5511 0.21875Z" fill="#FEFEFE"/>
<path d="M32.7762 15.7343C32.579 15.2239 32.2773 14.7605 31.8902 14.3738C31.5031 13.9871 31.0393 13.6859 30.5287 13.4893C29.8256 13.2289 29.0831 13.0912 28.3333 13.0824C27.0866 13.0256 26.7129 13.0114 23.5546 13.0114C20.3964 13.0114 20.0226 13.0256 18.7759 13.0824C18.0254 13.091 17.2819 13.2286 16.5781 13.4893C16.0677 13.6864 15.6042 13.9882 15.2176 14.3753C14.8309 14.7623 14.5296 15.2261 14.3331 15.7367C14.0726 16.4398 13.9351 17.1824 13.9262 17.9321C13.8694 19.1788 13.8552 19.5527 13.8552 22.7108C13.8552 25.869 13.8694 26.2429 13.9262 27.4896C13.9347 28.2401 14.0723 28.9835 14.3331 29.6873C14.5301 30.1977 14.8319 30.6612 15.219 31.0479C15.6061 31.4345 16.0698 31.7358 16.5805 31.9324C17.2836 32.1928 18.0262 32.3305 18.7759 32.3393C20.0226 32.3961 20.3964 32.4079 23.5546 32.4079C26.7129 32.4079 27.0866 32.3961 28.3333 32.3369C29.0837 32.3291 29.8272 32.1922 30.5311 31.9324C31.0415 31.7353 31.5049 31.4335 31.8916 31.0464C32.2783 30.6594 32.5796 30.1956 32.7762 29.685C33.0366 28.9819 33.1742 28.2393 33.1831 27.4896C33.2398 26.2429 33.2517 25.869 33.2517 22.7108C33.2517 19.5527 33.2398 19.1788 33.1807 17.9321C33.1728 17.1818 33.036 16.4384 32.7762 15.7343ZM23.5546 28.786C22.3531 28.786 21.1785 28.4297 20.1795 27.7621C19.1803 27.0946 18.4017 26.1458 17.9419 25.0357C17.4821 23.9256 17.3618 22.7041 17.5962 21.5256C17.8306 20.3472 18.4092 19.2647 19.2588 18.415C20.1085 17.5654 21.1909 16.9869 22.3694 16.7524C23.5479 16.518 24.7693 16.6383 25.8794 17.0982C26.9895 17.5579 27.9384 18.3366 28.6059 19.3356C29.2735 20.3347 29.6298 21.5093 29.6298 22.7108C29.6298 24.3221 28.9897 25.8673 27.8504 27.0066C26.7111 28.1459 25.1658 28.786 23.5546 28.786ZM29.8687 17.8162C29.5879 17.8162 29.3135 17.7329 29.0801 17.5769C28.8467 17.421 28.6647 17.1993 28.5573 16.94C28.4499 16.6806 28.4218 16.3952 28.4766 16.1199C28.5313 15.8445 28.6665 15.5916 28.865 15.3931C29.0635 15.1946 29.3164 15.0594 29.5918 15.0046C29.8671 14.9499 30.1525 14.9779 30.4119 15.0854C30.6713 15.1928 30.8929 15.3748 31.0489 15.6081C31.2049 15.8416 31.2881 16.116 31.2881 16.3968C31.2881 16.7732 31.1386 17.1342 30.8723 17.4005C30.6062 17.6666 30.2452 17.8162 29.8687 17.8162ZM27.4983 22.7108C27.4983 23.4908 27.267 24.2533 26.8336 24.9018C26.4003 25.5504 25.7844 26.0558 25.0637 26.3543C24.3432 26.6528 23.5502 26.7309 22.7852 26.5787C22.0202 26.4266 21.3175 26.0509 20.766 25.4994C20.2145 24.9479 19.8389 24.2452 19.6868 23.4802C19.5346 22.7152 19.6126 21.9223 19.9112 21.2017C20.2096 20.481 20.7151 19.8651 21.3637 19.4318C22.0122 18.9985 22.7746 18.7672 23.5546 18.7672C24.6005 18.7672 25.6036 19.1827 26.3431 19.9223C27.0828 20.6619 27.4983 21.6649 27.4983 22.7108ZM23.5546 0C19.0628 0 14.6719 1.33197 10.9371 3.82747C7.20236 6.32297 4.29145 9.86994 2.57252 14.0198C0.85359 18.1696 0.40384 22.7361 1.28014 27.1415C2.15645 31.547 4.31944 35.5937 7.49561 38.7699C10.6718 41.946 14.7185 44.109 19.124 44.9853C23.5294 45.8616 28.0958 45.4119 32.2457 43.6929C36.3955 41.974 39.9425 39.0631 42.438 35.3283C44.9334 31.5935 46.2654 27.2026 46.2654 22.7108C46.2654 16.6876 43.8727 10.911 39.6136 6.65185C35.3545 2.39274 29.5779 0 23.5546 0ZM35.3122 27.5866C35.2922 28.5682 35.1058 29.5393 34.761 30.4586C34.4571 31.2441 33.9926 31.9577 33.397 32.5532C32.8014 33.1488 32.0879 33.6134 31.3023 33.9173C30.3837 34.2618 29.4135 34.4481 28.4327 34.4684C27.1694 34.5252 26.7673 34.5394 23.5546 34.5394C20.342 34.5394 19.9398 34.5252 18.6765 34.4684C17.6957 34.4481 16.7254 34.2618 15.8069 33.9173C15.0213 33.6134 14.3079 33.1488 13.7122 32.5532C13.1166 31.9577 12.652 31.2441 12.3483 30.4586C12.0037 29.54 11.8173 28.5697 11.797 27.5889C11.7403 26.3257 11.7261 25.9234 11.7261 22.7108C11.7261 19.4982 11.7403 19.096 11.797 17.8328C11.8165 16.8521 12.0021 15.8818 12.3458 14.9631C12.6496 14.1769 13.1145 13.4628 13.7106 12.8667C14.3066 12.2707 15.0206 11.8059 15.8069 11.5021C16.7256 11.1584 17.6958 10.9728 18.6765 10.9533C19.9398 10.8964 20.342 10.8822 23.5546 10.8822C26.7673 10.8822 27.1694 10.8964 28.4327 10.9533C29.4134 10.9728 30.3837 11.1584 31.3023 11.5021C32.0881 11.8061 32.8017 12.2711 33.3973 12.8672C33.993 13.4632 34.4575 14.1771 34.761 14.9631C35.1055 15.8817 35.2919 16.8519 35.3122 17.8328C35.369 19.096 35.3832 19.4982 35.3832 22.7108C35.3832 25.9234 35.369 26.3233 35.3122 27.5866Z" fill="url(#paint0_linear_8566_1654)"/>
<defs>
<linearGradient id="paint0_linear_8566_1654" x1="44.3495" y1="7.62253" x2="9.69432" y2="44.088" gradientUnits="userSpaceOnUse">
<stop stop-color="#0040E0"/>
<stop offset="0.178899" stop-color="#913AC5"/>
<stop offset="0.332082" stop-color="#DC37A8"/>
<stop offset="0.45918" stop-color="#FF2E75"/>
<stop offset="0.61979" stop-color="#FF4B33"/>
<stop offset="0.786796" stop-color="#FF8B00"/>
<stop offset="0.960647" stop-color="#FFC545"/>
</linearGradient>
</defs>
</svg>
