<svg width="17" height="17" viewBox="0 0 17 17" fill="none" xmlns="http://www.w3.org/2000/svg">
<path fill-rule="evenodd" clip-rule="evenodd" d="M0.773381 0C0.346258 0 0 0.345965 0 0.772727C0 1.19949 0.346258 1.54545 0.773381 1.54545H1.7163L4.47281 12.5622C3.66023 12.9228 3.09352 13.7362 3.09352 14.6818C3.09352 15.9621 4.13229 17 5.41366 17C6.69504 17 7.73381 15.9621 7.73381 14.6818C7.73381 14.4109 7.68725 14.1508 7.60179 13.9091H10.9593C10.8739 14.1508 10.8273 14.4109 10.8273 14.6818C10.8273 15.9621 11.8661 17 13.1475 17C14.4289 17 15.4676 15.9621 15.4676 14.6818C15.4676 13.4015 14.4289 12.3636 13.1475 12.3636H6.01751L5.63081 10.8182H13.1475C14.7439 10.8182 15.7011 9.81047 16.2323 8.69774C16.7513 7.61036 16.932 6.3108 16.995 5.36557C17.0827 4.0492 15.9937 3.09091 14.7879 3.09091H3.69736L3.21688 1.17063C3.04474 0.482638 2.42606 0 1.7163 0H0.773381ZM13.1475 9.27273H5.24412L4.08405 4.63636H14.7879C15.2156 4.63636 15.4725 4.95067 15.4517 5.26288C15.3929 6.14488 15.2283 7.21094 14.8362 8.03242C14.4562 8.82849 13.9364 9.27273 13.1475 9.27273ZM13.1475 15.4498C12.723 15.4498 12.3789 15.106 12.3789 14.6818C12.3789 14.2577 12.723 13.9139 13.1475 13.9139C13.572 13.9139 13.9161 14.2577 13.9161 14.6818C13.9161 15.106 13.572 15.4498 13.1475 15.4498ZM4.64506 14.6818C4.64506 15.106 4.98917 15.4498 5.41366 15.4498C5.83816 15.4498 6.18227 15.106 6.18227 14.6818C6.18227 14.2577 5.83816 13.9139 5.41366 13.9139C4.98917 13.9139 4.64506 14.2577 4.64506 14.6818Z" fill="#F2F2F2"/>
</svg>
