<svg width="40" height="40" viewBox="0 0 40 40" fill="none" xmlns="http://www.w3.org/2000/svg">
<path d="M20 0C31.0457 0 40 8.9543 40 20C40 31.0457 31.0457 40 20 40C8.9543 40 0 31.0457 0 20C0 8.9543 8.9543 0 20 0ZM10.9102 10C10.4077 10 10 10.4071 10 10.9092C10 11.4112 10.4077 11.8184 10.9102 11.8184H12.0195L15.2617 24.7793C14.3061 25.2036 13.6398 26.1602 13.6396 27.2725C13.6396 28.7787 14.8616 30 16.3691 30C17.8766 29.9999 19.0986 28.7787 19.0986 27.2725C19.0986 26.9538 19.0439 26.6476 18.9434 26.3633H22.8936C22.793 26.6476 22.7383 26.9538 22.7383 27.2725C22.7383 28.7787 23.9602 30 25.4678 30C26.9752 29.9999 28.1973 28.7787 28.1973 27.2725C28.1971 25.7664 26.9752 24.546 25.4678 24.5459H17.0791L16.624 22.7275H25.4678C27.3458 22.7275 28.4718 21.5415 29.0967 20.2324C29.7073 18.9532 29.92 17.4245 29.9941 16.3125C30.0973 14.7638 28.8161 13.6367 27.3975 13.6367H14.3496L13.7842 11.377C13.5816 10.5678 12.8543 10.0002 12.0195 10H10.9102ZM16.3691 26.3691C16.8684 26.3692 17.2733 26.7736 17.2734 27.2725C17.2734 27.7714 16.8685 28.1757 16.3691 28.1758C15.8697 28.1758 15.4648 27.7715 15.4648 27.2725C15.465 26.7736 15.8698 26.3691 16.3691 26.3691ZM25.4678 26.3691C25.967 26.3692 26.3719 26.7736 26.3721 27.2725C26.3721 27.7714 25.9671 28.1757 25.4678 28.1758C24.9684 28.1758 24.5635 27.7715 24.5635 27.2725C24.5636 26.7736 24.9684 26.3691 25.4678 26.3691ZM27.3975 15.4541C27.9006 15.4541 28.203 15.8242 28.1787 16.1914C28.1096 17.2291 27.9154 18.4837 27.4541 19.4502C27.007 20.3865 26.3957 20.9091 25.4678 20.9092H16.1699L14.8047 15.4541H27.3975Z" fill="#FEFEFE"/>
</svg>
