<svg width="46" height="45" viewBox="0 0 46 45" fill="none" xmlns="http://www.w3.org/2000/svg">
<path d="M23.4417 0C11.0203 0 0.953125 10.0672 0.953125 22.4886C0.953125 34.91 11.0203 44.9771 23.4417 44.9771C35.8631 44.9771 45.9303 34.91 45.9303 22.4886C45.9303 10.0672 35.8631 0 23.4417 0Z" fill="#25D366"/>
<path d="M33.9531 21.717C33.9531 27.6354 29.118 32.4333 23.1522 32.4333C21.259 32.4333 19.4806 31.949 17.9325 31.1011L11.9531 33L13.9023 27.2487C12.9194 25.6346 12.3534 23.7393 12.3534 21.7163C12.3541 15.7979 17.1879 11 23.1536 11C29.1187 11.0014 33.9531 15.7986 33.9531 21.717ZM23.1515 12.7088C18.1449 12.7088 14.0723 16.7505 14.0723 21.7191C14.0723 23.6905 14.7151 25.5155 15.8019 27.0005L14.6684 30.3457L18.1563 29.2373C19.5911 30.1785 21.3078 30.7266 23.1515 30.7266C28.1581 30.7266 32.2321 26.6856 32.2321 21.717C32.2336 16.7505 28.1588 12.7088 23.1515 12.7088ZM28.6065 24.1855C28.539 24.0772 28.3626 24.0112 28.0986 23.8792C27.8353 23.7472 26.5318 23.1123 26.29 23.0262C26.0461 22.938 25.8696 22.8935 25.6932 23.1568C25.5188 23.4201 25.0109 24.0112 24.8553 24.1877C24.701 24.3634 24.5468 24.3857 24.2821 24.2558C24.0174 24.1224 23.1637 23.8469 22.1522 22.9523C21.3652 22.255 20.8336 21.3963 20.6801 21.133C20.5244 20.8705 20.6643 20.7284 20.7956 20.5979C20.914 20.4795 21.0603 20.2908 21.193 20.1366C21.3257 19.9838 21.3695 19.8755 21.4577 19.6997C21.5445 19.524 21.5008 19.3711 21.4355 19.2384C21.3695 19.1064 20.8408 17.8151 20.6191 17.2893C20.3989 16.7642 20.1786 16.851 20.0237 16.851C19.8695 16.851 19.693 16.8295 19.5165 16.8295C19.34 16.8295 19.0531 16.8933 18.8113 17.1566C18.5696 17.4199 17.8852 18.0547 17.8852 19.3475C17.8852 20.6416 18.8328 21.8892 18.9655 22.0642C19.099 22.2385 20.7977 24.9782 23.4887 26.0299C26.181 27.0809 26.181 26.7301 26.6659 26.6856C27.1523 26.6411 28.2327 26.0507 28.4522 25.4381C28.6732 24.8225 28.6732 24.2953 28.6065 24.1855Z" fill="#FEFEFE"/>
</svg>
